<svg xmlns="http://www.w3.org/2000/svg" viewBox="0 0 256 256" width="256" height="256">
  <defs>
    <linearGradient id="bg" x1="0" y1="0" x2="0" y2="1">
      <stop offset="0" stop-color="#3a3f4b"></stop>
      <stop offset="1" stop-color="#1a1c22"></stop>
    </linearGradient>
    <linearGradient id="drop" x1="0" y1="0" x2="0" y2="1">
      <stop offset="0" stop-color="#6bb6ff"></stop>
      <stop offset="0.55" stop-color="#3584e4"></stop>
      <stop offset="1" stop-color="#1a5cc4"></stop>
    </linearGradient>
    <linearGradient id="gloss" x1="0" y1="0" x2="0" y2="1">
      <stop offset="0" stop-color="#ffffff" stop-opacity="0.55"></stop>
      <stop offset="1" stop-color="#ffffff" stop-opacity="0"></stop>
    </linearGradient>
    <radialGradient id="edgeLight" cx="0.5" cy="0" r="0.9">
      <stop offset="0" stop-color="#ffffff" stop-opacity="0.10"></stop>
      <stop offset="1" stop-color="#ffffff" stop-opacity="0"></stop>
    </radialGradient>
  </defs>

  <rect x="4" y="4" width="248" height="248" rx="58" fill="url(#bg)"></rect>
  <rect x="4" y="4" width="248" height="248" rx="58" fill="url(#edgeLight)"></rect>
  <rect x="4.5" y="4.5" width="247" height="247" rx="57.5" fill="none" stroke="#000000" stroke-opacity="0.35" stroke-width="1"></rect>

  
  <path d="M128 54c28 34 50 62 50 89a50 50 0 1 1-100 0c0-27 22-55 50-89z" fill="url(#drop)"></path>
  <path d="M128 54c28 34 50 62 50 89a50 50 0 1 1-100 0c0-27 22-55 50-89z" fill="url(#gloss)" opacity="0.5"></path>

  
  <ellipse cx="110" cy="118" rx="14" ry="20" fill="#ffffff" opacity="0.35"></ellipse>

  
  <path d="M84 168h20l10-22 14 34 12-46 10 34h22" fill="none" stroke="#ffffff" stroke-width="7" stroke-linecap="round" stroke-linejoin="round" opacity="0.92"></path>
</svg>